<mxfile host="app.diagrams.net" agent="Mozilla/5.0 (Windows NT 10.0; Win64; x64) AppleWebKit/537.36 (KHTML, like Gecko) Chrome/140.0.0.0 Safari/537.36" version="28.2.3">
  <diagram name="Página-1" id="L6mM7VS_ToA8zGVt249B">
    <mxGraphModel dx="1678" dy="874" grid="1" gridSize="10" guides="1" tooltips="1" connect="1" arrows="1" fold="1" page="1" pageScale="1" pageWidth="827" pageHeight="1169" math="0" shadow="0">
      <root>
        <object label="" cliente="" id="0">
          <mxCell />
        </object>
        <mxCell id="1" parent="0" />
        <mxCell id="2cAsnJDRUEPyDkfKA4UC-10" style="edgeStyle=orthogonalEdgeStyle;rounded=0;orthogonalLoop=1;jettySize=auto;html=1;entryX=0.5;entryY=0;entryDx=0;entryDy=0;endArrow=none;endFill=0;" edge="1" parent="1" source="DgWF0BL-dPqaDVWD86OZ-31" target="2cAsnJDRUEPyDkfKA4UC-1">
          <mxGeometry relative="1" as="geometry" />
        </mxCell>
        <mxCell id="2cAsnJDRUEPyDkfKA4UC-12" value="n" style="edgeLabel;html=1;align=center;verticalAlign=middle;resizable=0;points=[];" vertex="1" connectable="0" parent="2cAsnJDRUEPyDkfKA4UC-10">
          <mxGeometry x="-0.72" y="1" relative="1" as="geometry">
            <mxPoint as="offset" />
          </mxGeometry>
        </mxCell>
        <mxCell id="2cAsnJDRUEPyDkfKA4UC-15" style="edgeStyle=orthogonalEdgeStyle;rounded=0;orthogonalLoop=1;jettySize=auto;html=1;entryX=0;entryY=0.5;entryDx=0;entryDy=0;endArrow=none;endFill=0;" edge="1" parent="1" source="DgWF0BL-dPqaDVWD86OZ-31" target="2cAsnJDRUEPyDkfKA4UC-2">
          <mxGeometry relative="1" as="geometry" />
        </mxCell>
        <mxCell id="2cAsnJDRUEPyDkfKA4UC-26" value="1" style="edgeLabel;html=1;align=center;verticalAlign=middle;resizable=0;points=[];" vertex="1" connectable="0" parent="2cAsnJDRUEPyDkfKA4UC-15">
          <mxGeometry x="-0.5826" y="1" relative="1" as="geometry">
            <mxPoint as="offset" />
          </mxGeometry>
        </mxCell>
        <mxCell id="DgWF0BL-dPqaDVWD86OZ-31" value="mesas" style="rounded=1;whiteSpace=wrap;html=1;" parent="1" vertex="1">
          <mxGeometry x="130" y="110" width="120" height="60" as="geometry" />
        </mxCell>
        <mxCell id="2cAsnJDRUEPyDkfKA4UC-17" style="edgeStyle=orthogonalEdgeStyle;rounded=0;orthogonalLoop=1;jettySize=auto;html=1;endArrow=none;endFill=0;" edge="1" parent="1" source="DgWF0BL-dPqaDVWD86OZ-33" target="2cAsnJDRUEPyDkfKA4UC-4">
          <mxGeometry relative="1" as="geometry" />
        </mxCell>
        <mxCell id="2cAsnJDRUEPyDkfKA4UC-75" style="rounded=0;orthogonalLoop=1;jettySize=auto;html=1;endArrow=none;endFill=0;" edge="1" parent="1" source="DgWF0BL-dPqaDVWD86OZ-33" target="2cAsnJDRUEPyDkfKA4UC-74">
          <mxGeometry relative="1" as="geometry" />
        </mxCell>
        <mxCell id="DgWF0BL-dPqaDVWD86OZ-33" value="reservas" style="rounded=1;whiteSpace=wrap;html=1;" parent="1" vertex="1">
          <mxGeometry x="130" y="330" width="120" height="60" as="geometry" />
        </mxCell>
        <mxCell id="2cAsnJDRUEPyDkfKA4UC-19" style="edgeStyle=orthogonalEdgeStyle;rounded=0;orthogonalLoop=1;jettySize=auto;html=1;entryX=0.5;entryY=0;entryDx=0;entryDy=0;endArrow=none;endFill=0;" edge="1" parent="1" source="DgWF0BL-dPqaDVWD86OZ-34" target="2cAsnJDRUEPyDkfKA4UC-3">
          <mxGeometry relative="1" as="geometry" />
        </mxCell>
        <mxCell id="2cAsnJDRUEPyDkfKA4UC-59" style="rounded=0;orthogonalLoop=1;jettySize=auto;html=1;endArrow=none;endFill=0;" edge="1" parent="1" source="DgWF0BL-dPqaDVWD86OZ-34" target="2cAsnJDRUEPyDkfKA4UC-58">
          <mxGeometry relative="1" as="geometry" />
        </mxCell>
        <mxCell id="DgWF0BL-dPqaDVWD86OZ-34" value="menu" style="rounded=1;whiteSpace=wrap;html=1;" parent="1" vertex="1">
          <mxGeometry x="610" y="110" width="120" height="60" as="geometry" />
        </mxCell>
        <mxCell id="DgWF0BL-dPqaDVWD86OZ-36" value="capacidad" style="ellipse;whiteSpace=wrap;html=1;" parent="1" vertex="1">
          <mxGeometry x="130" y="20" width="80" height="50" as="geometry" />
        </mxCell>
        <mxCell id="DgWF0BL-dPqaDVWD86OZ-37" value="ubicación" style="ellipse;whiteSpace=wrap;html=1;" parent="1" vertex="1">
          <mxGeometry x="220" y="20" width="80" height="50" as="geometry" />
        </mxCell>
        <mxCell id="DgWF0BL-dPqaDVWD86OZ-38" value="estado" style="ellipse;whiteSpace=wrap;html=1;" parent="1" vertex="1">
          <mxGeometry x="310" y="20" width="80" height="50" as="geometry" />
        </mxCell>
        <mxCell id="DgWF0BL-dPqaDVWD86OZ-46" value="cliente_id" style="ellipse;whiteSpace=wrap;html=1;" parent="1" vertex="1">
          <mxGeometry x="40" y="490" width="80" height="50" as="geometry" />
        </mxCell>
        <mxCell id="2cAsnJDRUEPyDkfKA4UC-55" style="rounded=0;orthogonalLoop=1;jettySize=auto;html=1;exitX=0;exitY=0;exitDx=0;exitDy=0;entryX=0.5;entryY=1;entryDx=0;entryDy=0;endArrow=none;endFill=0;" edge="1" parent="1" source="DgWF0BL-dPqaDVWD86OZ-47" target="DgWF0BL-dPqaDVWD86OZ-33">
          <mxGeometry relative="1" as="geometry" />
        </mxCell>
        <mxCell id="DgWF0BL-dPqaDVWD86OZ-47" value="mesa_id" style="ellipse;whiteSpace=wrap;html=1;" parent="1" vertex="1">
          <mxGeometry x="250" y="490" width="80" height="50" as="geometry" />
        </mxCell>
        <mxCell id="2cAsnJDRUEPyDkfKA4UC-57" style="rounded=0;orthogonalLoop=1;jettySize=auto;html=1;exitX=0;exitY=0;exitDx=0;exitDy=0;entryX=1;entryY=0.75;entryDx=0;entryDy=0;endArrow=none;endFill=0;" edge="1" parent="1" source="DgWF0BL-dPqaDVWD86OZ-48" target="DgWF0BL-dPqaDVWD86OZ-33">
          <mxGeometry relative="1" as="geometry" />
        </mxCell>
        <mxCell id="DgWF0BL-dPqaDVWD86OZ-48" value="fecha" style="ellipse;whiteSpace=wrap;html=1;" parent="1" vertex="1">
          <mxGeometry x="260" y="375" width="80" height="50" as="geometry" />
        </mxCell>
        <mxCell id="2cAsnJDRUEPyDkfKA4UC-52" style="rounded=0;orthogonalLoop=1;jettySize=auto;html=1;exitX=1;exitY=0.5;exitDx=0;exitDy=0;entryX=0;entryY=1;entryDx=0;entryDy=0;endArrow=none;endFill=0;" edge="1" parent="1" source="DgWF0BL-dPqaDVWD86OZ-49" target="DgWF0BL-dPqaDVWD86OZ-33">
          <mxGeometry relative="1" as="geometry" />
        </mxCell>
        <mxCell id="DgWF0BL-dPqaDVWD86OZ-49" value="hora" style="ellipse;whiteSpace=wrap;html=1;" parent="1" vertex="1">
          <mxGeometry x="25" y="375" width="80" height="50" as="geometry" />
        </mxCell>
        <mxCell id="2cAsnJDRUEPyDkfKA4UC-56" style="rounded=0;orthogonalLoop=1;jettySize=auto;html=1;exitX=0;exitY=0;exitDx=0;exitDy=0;entryX=0.75;entryY=1;entryDx=0;entryDy=0;endArrow=none;endFill=0;" edge="1" parent="1" source="DgWF0BL-dPqaDVWD86OZ-50" target="DgWF0BL-dPqaDVWD86OZ-33">
          <mxGeometry relative="1" as="geometry" />
        </mxCell>
        <mxCell id="DgWF0BL-dPqaDVWD86OZ-50" value="num_personas" style="ellipse;whiteSpace=wrap;html=1;" parent="1" vertex="1">
          <mxGeometry x="240" y="430" width="90" height="50" as="geometry" />
        </mxCell>
        <mxCell id="2cAsnJDRUEPyDkfKA4UC-51" style="rounded=0;orthogonalLoop=1;jettySize=auto;html=1;exitX=1;exitY=0.5;exitDx=0;exitDy=0;entryX=0;entryY=0.25;entryDx=0;entryDy=0;endArrow=none;endFill=0;" edge="1" parent="1" source="DgWF0BL-dPqaDVWD86OZ-51" target="DgWF0BL-dPqaDVWD86OZ-33">
          <mxGeometry relative="1" as="geometry" />
        </mxCell>
        <mxCell id="DgWF0BL-dPqaDVWD86OZ-51" value="fecha registro" style="ellipse;whiteSpace=wrap;html=1;" parent="1" vertex="1">
          <mxGeometry x="25" y="320" width="90" height="50" as="geometry" />
        </mxCell>
        <mxCell id="2cAsnJDRUEPyDkfKA4UC-35" style="rounded=0;orthogonalLoop=1;jettySize=auto;html=1;exitX=1;exitY=1;exitDx=0;exitDy=0;entryX=0;entryY=0;entryDx=0;entryDy=0;endArrow=none;endFill=0;" edge="1" parent="1" source="DgWF0BL-dPqaDVWD86OZ-52" target="DgWF0BL-dPqaDVWD86OZ-34">
          <mxGeometry relative="1" as="geometry" />
        </mxCell>
        <mxCell id="DgWF0BL-dPqaDVWD86OZ-52" value="&lt;u&gt;id&lt;/u&gt;" style="ellipse;whiteSpace=wrap;html=1;" parent="1" vertex="1">
          <mxGeometry x="520" y="65" width="50" height="40" as="geometry" />
        </mxCell>
        <mxCell id="DgWF0BL-dPqaDVWD86OZ-53" value="reserva_id" style="ellipse;whiteSpace=wrap;html=1;" parent="1" vertex="1">
          <mxGeometry x="570" y="25" width="80" height="50" as="geometry" />
        </mxCell>
        <mxCell id="DgWF0BL-dPqaDVWD86OZ-54" value="plato_id" style="ellipse;whiteSpace=wrap;html=1;" parent="1" vertex="1">
          <mxGeometry x="650" y="15" width="80" height="50" as="geometry" />
        </mxCell>
        <mxCell id="DgWF0BL-dPqaDVWD86OZ-55" value="cantidad" style="ellipse;whiteSpace=wrap;html=1;" parent="1" vertex="1">
          <mxGeometry x="740" y="15" width="80" height="50" as="geometry" />
        </mxCell>
        <mxCell id="2cAsnJDRUEPyDkfKA4UC-39" style="rounded=0;orthogonalLoop=1;jettySize=auto;html=1;exitX=0;exitY=0.5;exitDx=0;exitDy=0;entryX=1;entryY=0.25;entryDx=0;entryDy=0;endArrow=none;endFill=0;" edge="1" parent="1" source="DgWF0BL-dPqaDVWD86OZ-56" target="DgWF0BL-dPqaDVWD86OZ-34">
          <mxGeometry relative="1" as="geometry" />
        </mxCell>
        <mxCell id="DgWF0BL-dPqaDVWD86OZ-56" value="precio_unitario" style="ellipse;whiteSpace=wrap;html=1;" parent="1" vertex="1">
          <mxGeometry x="840" y="20" width="90" height="50" as="geometry" />
        </mxCell>
        <mxCell id="DgWF0BL-dPqaDVWD86OZ-57" value="&lt;u&gt;id&lt;/u&gt;" style="ellipse;whiteSpace=wrap;html=1;" parent="1" vertex="1">
          <mxGeometry x="40" y="440" width="50" height="40" as="geometry" />
        </mxCell>
        <mxCell id="2cAsnJDRUEPyDkfKA4UC-21" style="rounded=0;orthogonalLoop=1;jettySize=auto;html=1;exitX=1;exitY=1;exitDx=0;exitDy=0;entryX=0;entryY=0;entryDx=0;entryDy=0;endArrow=none;endFill=0;" edge="1" parent="1" source="DgWF0BL-dPqaDVWD86OZ-59" target="DgWF0BL-dPqaDVWD86OZ-31">
          <mxGeometry relative="1" as="geometry" />
        </mxCell>
        <mxCell id="DgWF0BL-dPqaDVWD86OZ-59" value="&lt;u&gt;id&lt;/u&gt;" style="ellipse;whiteSpace=wrap;html=1;" parent="1" vertex="1">
          <mxGeometry x="55" y="30" width="50" height="40" as="geometry" />
        </mxCell>
        <mxCell id="DgWF0BL-dPqaDVWD86OZ-60" value="usuarios" style="rounded=1;whiteSpace=wrap;html=1;" parent="1" vertex="1">
          <mxGeometry x="610" y="330" width="120" height="60" as="geometry" />
        </mxCell>
        <mxCell id="DgWF0BL-dPqaDVWD86OZ-61" value="&lt;u&gt;id&lt;/u&gt;" style="ellipse;whiteSpace=wrap;html=1;" parent="1" vertex="1">
          <mxGeometry x="545" y="375" width="50" height="40" as="geometry" />
        </mxCell>
        <mxCell id="2cAsnJDRUEPyDkfKA4UC-44" style="rounded=0;orthogonalLoop=1;jettySize=auto;html=1;exitX=1;exitY=0.5;exitDx=0;exitDy=0;entryX=0.25;entryY=1;entryDx=0;entryDy=0;endArrow=none;endFill=0;" edge="1" parent="1" source="DgWF0BL-dPqaDVWD86OZ-62" target="DgWF0BL-dPqaDVWD86OZ-60">
          <mxGeometry relative="1" as="geometry" />
        </mxCell>
        <mxCell id="DgWF0BL-dPqaDVWD86OZ-62" value="tipo_documento" style="ellipse;whiteSpace=wrap;html=1;" parent="1" vertex="1">
          <mxGeometry x="525" y="470" width="100" height="50" as="geometry" />
        </mxCell>
        <mxCell id="DgWF0BL-dPqaDVWD86OZ-63" value="num_documento" style="ellipse;whiteSpace=wrap;html=1;" parent="1" vertex="1">
          <mxGeometry x="700" y="520" width="100" height="50" as="geometry" />
        </mxCell>
        <mxCell id="2cAsnJDRUEPyDkfKA4UC-47" style="rounded=0;orthogonalLoop=1;jettySize=auto;html=1;exitX=0;exitY=0;exitDx=0;exitDy=0;entryX=0.75;entryY=1;entryDx=0;entryDy=0;endArrow=none;endFill=0;" edge="1" parent="1" source="DgWF0BL-dPqaDVWD86OZ-64" target="DgWF0BL-dPqaDVWD86OZ-60">
          <mxGeometry relative="1" as="geometry" />
        </mxCell>
        <mxCell id="DgWF0BL-dPqaDVWD86OZ-64" value="nombres" style="ellipse;whiteSpace=wrap;html=1;" parent="1" vertex="1">
          <mxGeometry x="730" y="470" width="100" height="50" as="geometry" />
        </mxCell>
        <mxCell id="DgWF0BL-dPqaDVWD86OZ-65" value="apellidos" style="ellipse;whiteSpace=wrap;html=1;" parent="1" vertex="1">
          <mxGeometry x="590" y="520" width="100" height="50" as="geometry" />
        </mxCell>
        <mxCell id="2cAsnJDRUEPyDkfKA4UC-48" style="rounded=0;orthogonalLoop=1;jettySize=auto;html=1;exitX=0;exitY=0;exitDx=0;exitDy=0;entryX=1;entryY=1;entryDx=0;entryDy=0;endArrow=none;endFill=0;" edge="1" parent="1" source="DgWF0BL-dPqaDVWD86OZ-67" target="DgWF0BL-dPqaDVWD86OZ-60">
          <mxGeometry relative="1" as="geometry" />
        </mxCell>
        <mxCell id="DgWF0BL-dPqaDVWD86OZ-67" value="celular" style="ellipse;whiteSpace=wrap;html=1;" parent="1" vertex="1">
          <mxGeometry x="750" y="410" width="100" height="50" as="geometry" />
        </mxCell>
        <mxCell id="2cAsnJDRUEPyDkfKA4UC-50" style="rounded=0;orthogonalLoop=1;jettySize=auto;html=1;exitX=0;exitY=0.5;exitDx=0;exitDy=0;entryX=1;entryY=0.5;entryDx=0;entryDy=0;endArrow=none;endFill=0;" edge="1" parent="1" source="DgWF0BL-dPqaDVWD86OZ-68" target="DgWF0BL-dPqaDVWD86OZ-60">
          <mxGeometry relative="1" as="geometry" />
        </mxCell>
        <mxCell id="DgWF0BL-dPqaDVWD86OZ-68" value="email" style="ellipse;whiteSpace=wrap;html=1;" parent="1" vertex="1">
          <mxGeometry x="750" y="350" width="100" height="50" as="geometry" />
        </mxCell>
        <mxCell id="DgWF0BL-dPqaDVWD86OZ-69" value="contraseña" style="ellipse;whiteSpace=wrap;html=1;" parent="1" vertex="1">
          <mxGeometry x="750" y="290" width="100" height="50" as="geometry" />
        </mxCell>
        <mxCell id="2cAsnJDRUEPyDkfKA4UC-43" style="rounded=0;orthogonalLoop=1;jettySize=auto;html=1;exitX=1;exitY=0;exitDx=0;exitDy=0;entryX=0;entryY=1;entryDx=0;entryDy=0;endArrow=none;endFill=0;" edge="1" parent="1" source="DgWF0BL-dPqaDVWD86OZ-70" target="DgWF0BL-dPqaDVWD86OZ-60">
          <mxGeometry relative="1" as="geometry" />
        </mxCell>
        <mxCell id="DgWF0BL-dPqaDVWD86OZ-70" value="tipo_usuario" style="ellipse;whiteSpace=wrap;html=1;" parent="1" vertex="1">
          <mxGeometry x="520" y="420" width="100" height="50" as="geometry" />
        </mxCell>
        <mxCell id="2cAsnJDRUEPyDkfKA4UC-9" style="edgeStyle=orthogonalEdgeStyle;rounded=0;orthogonalLoop=1;jettySize=auto;html=1;exitX=0;exitY=0.5;exitDx=0;exitDy=0;entryX=1;entryY=0.5;entryDx=0;entryDy=0;strokeColor=default;endArrow=none;endFill=0;" edge="1" parent="1" source="2cAsnJDRUEPyDkfKA4UC-1" target="2cAsnJDRUEPyDkfKA4UC-7">
          <mxGeometry relative="1" as="geometry" />
        </mxCell>
        <mxCell id="2cAsnJDRUEPyDkfKA4UC-11" style="edgeStyle=orthogonalEdgeStyle;rounded=0;orthogonalLoop=1;jettySize=auto;html=1;entryX=0.5;entryY=0;entryDx=0;entryDy=0;endArrow=none;endFill=0;" edge="1" parent="1" source="2cAsnJDRUEPyDkfKA4UC-1" target="DgWF0BL-dPqaDVWD86OZ-33">
          <mxGeometry relative="1" as="geometry" />
        </mxCell>
        <mxCell id="2cAsnJDRUEPyDkfKA4UC-13" value="n" style="edgeLabel;html=1;align=center;verticalAlign=middle;resizable=0;points=[];" vertex="1" connectable="0" parent="2cAsnJDRUEPyDkfKA4UC-11">
          <mxGeometry x="0.56" y="1" relative="1" as="geometry">
            <mxPoint as="offset" />
          </mxGeometry>
        </mxCell>
        <mxCell id="2cAsnJDRUEPyDkfKA4UC-1" value="hacen" style="rhombus;whiteSpace=wrap;html=1;" vertex="1" parent="1">
          <mxGeometry x="150" y="220" width="80" height="80" as="geometry" />
        </mxCell>
        <mxCell id="2cAsnJDRUEPyDkfKA4UC-16" style="edgeStyle=orthogonalEdgeStyle;rounded=0;orthogonalLoop=1;jettySize=auto;html=1;entryX=0;entryY=0.5;entryDx=0;entryDy=0;endArrow=none;endFill=0;" edge="1" parent="1" source="2cAsnJDRUEPyDkfKA4UC-2" target="DgWF0BL-dPqaDVWD86OZ-34">
          <mxGeometry relative="1" as="geometry" />
        </mxCell>
        <mxCell id="2cAsnJDRUEPyDkfKA4UC-2" value="tener" style="rhombus;whiteSpace=wrap;html=1;" vertex="1" parent="1">
          <mxGeometry x="365" y="100" width="80" height="80" as="geometry" />
        </mxCell>
        <mxCell id="2cAsnJDRUEPyDkfKA4UC-20" style="edgeStyle=orthogonalEdgeStyle;rounded=0;orthogonalLoop=1;jettySize=auto;html=1;entryX=0.5;entryY=0;entryDx=0;entryDy=0;endArrow=none;endFill=0;" edge="1" parent="1" source="2cAsnJDRUEPyDkfKA4UC-3" target="DgWF0BL-dPqaDVWD86OZ-60">
          <mxGeometry relative="1" as="geometry" />
        </mxCell>
        <mxCell id="2cAsnJDRUEPyDkfKA4UC-3" value="puede" style="rhombus;whiteSpace=wrap;html=1;" vertex="1" parent="1">
          <mxGeometry x="630" y="210" width="80" height="80" as="geometry" />
        </mxCell>
        <mxCell id="2cAsnJDRUEPyDkfKA4UC-18" style="edgeStyle=orthogonalEdgeStyle;rounded=0;orthogonalLoop=1;jettySize=auto;html=1;endArrow=none;endFill=0;" edge="1" parent="1" source="2cAsnJDRUEPyDkfKA4UC-4" target="DgWF0BL-dPqaDVWD86OZ-60">
          <mxGeometry relative="1" as="geometry" />
        </mxCell>
        <mxCell id="2cAsnJDRUEPyDkfKA4UC-4" value="hace" style="rhombus;whiteSpace=wrap;html=1;" vertex="1" parent="1">
          <mxGeometry x="390" y="320" width="80" height="80" as="geometry" />
        </mxCell>
        <mxCell id="2cAsnJDRUEPyDkfKA4UC-7" value="tiempo" style="rounded=1;whiteSpace=wrap;html=1;" vertex="1" parent="1">
          <mxGeometry x="40" y="245" width="70" height="30" as="geometry" />
        </mxCell>
        <mxCell id="2cAsnJDRUEPyDkfKA4UC-14" value="n:n" style="text;html=1;align=center;verticalAlign=middle;resizable=0;points=[];autosize=1;strokeColor=none;fillColor=none;" vertex="1" parent="1">
          <mxGeometry x="200" y="218" width="40" height="30" as="geometry" />
        </mxCell>
        <mxCell id="2cAsnJDRUEPyDkfKA4UC-22" style="rounded=0;orthogonalLoop=1;jettySize=auto;html=1;exitX=0.5;exitY=1;exitDx=0;exitDy=0;entryX=0.342;entryY=0;entryDx=0;entryDy=0;endArrow=none;endFill=0;entryPerimeter=0;" edge="1" parent="1" source="DgWF0BL-dPqaDVWD86OZ-36" target="DgWF0BL-dPqaDVWD86OZ-31">
          <mxGeometry relative="1" as="geometry">
            <mxPoint x="200" y="70" as="sourcePoint" />
            <mxPoint x="232" y="116" as="targetPoint" />
          </mxGeometry>
        </mxCell>
        <mxCell id="2cAsnJDRUEPyDkfKA4UC-23" style="rounded=0;orthogonalLoop=1;jettySize=auto;html=1;exitX=0.5;exitY=1;exitDx=0;exitDy=0;entryX=0.808;entryY=0;entryDx=0;entryDy=0;endArrow=none;endFill=0;entryPerimeter=0;" edge="1" parent="1" target="DgWF0BL-dPqaDVWD86OZ-31">
          <mxGeometry relative="1" as="geometry">
            <mxPoint x="250" y="70" as="sourcePoint" />
            <mxPoint x="251" y="110" as="targetPoint" />
          </mxGeometry>
        </mxCell>
        <mxCell id="2cAsnJDRUEPyDkfKA4UC-24" style="rounded=0;orthogonalLoop=1;jettySize=auto;html=1;exitX=0;exitY=1;exitDx=0;exitDy=0;entryX=0.925;entryY=0.033;entryDx=0;entryDy=0;endArrow=none;endFill=0;entryPerimeter=0;" edge="1" parent="1" source="DgWF0BL-dPqaDVWD86OZ-38" target="DgWF0BL-dPqaDVWD86OZ-31">
          <mxGeometry relative="1" as="geometry">
            <mxPoint x="303" y="80" as="sourcePoint" />
            <mxPoint x="280" y="120" as="targetPoint" />
          </mxGeometry>
        </mxCell>
        <mxCell id="2cAsnJDRUEPyDkfKA4UC-25" value="1:1" style="text;html=1;align=center;verticalAlign=middle;resizable=0;points=[];autosize=1;strokeColor=none;fillColor=none;" vertex="1" parent="1">
          <mxGeometry x="385" y="75" width="40" height="30" as="geometry" />
        </mxCell>
        <mxCell id="2cAsnJDRUEPyDkfKA4UC-27" value="1" style="text;html=1;align=center;verticalAlign=middle;resizable=0;points=[];autosize=1;strokeColor=none;fillColor=none;" vertex="1" parent="1">
          <mxGeometry x="580" y="110" width="30" height="30" as="geometry" />
        </mxCell>
        <mxCell id="2cAsnJDRUEPyDkfKA4UC-29" value="n" style="text;html=1;align=center;verticalAlign=middle;resizable=0;points=[];autosize=1;strokeColor=none;fillColor=none;" vertex="1" parent="1">
          <mxGeometry x="665" y="168" width="30" height="30" as="geometry" />
        </mxCell>
        <mxCell id="2cAsnJDRUEPyDkfKA4UC-30" value="1" style="text;html=1;align=center;verticalAlign=middle;resizable=0;points=[];autosize=1;strokeColor=none;fillColor=none;" vertex="1" parent="1">
          <mxGeometry x="665" y="308" width="30" height="30" as="geometry" />
        </mxCell>
        <mxCell id="2cAsnJDRUEPyDkfKA4UC-31" value="1:n" style="text;html=1;align=center;verticalAlign=middle;resizable=0;points=[];autosize=1;strokeColor=none;fillColor=none;" vertex="1" parent="1">
          <mxGeometry x="700" y="228" width="40" height="30" as="geometry" />
        </mxCell>
        <mxCell id="2cAsnJDRUEPyDkfKA4UC-32" value="n:1" style="text;html=1;align=center;verticalAlign=middle;resizable=0;points=[];autosize=1;strokeColor=none;fillColor=none;" vertex="1" parent="1">
          <mxGeometry x="410" y="290" width="40" height="30" as="geometry" />
        </mxCell>
        <mxCell id="2cAsnJDRUEPyDkfKA4UC-33" value="n" style="text;html=1;align=center;verticalAlign=middle;resizable=0;points=[];autosize=1;strokeColor=none;fillColor=none;" vertex="1" parent="1">
          <mxGeometry x="245" y="328" width="30" height="30" as="geometry" />
        </mxCell>
        <mxCell id="2cAsnJDRUEPyDkfKA4UC-34" value="1" style="text;html=1;align=center;verticalAlign=middle;resizable=0;points=[];autosize=1;strokeColor=none;fillColor=none;" vertex="1" parent="1">
          <mxGeometry x="585" y="338" width="30" height="30" as="geometry" />
        </mxCell>
        <mxCell id="2cAsnJDRUEPyDkfKA4UC-36" style="rounded=0;orthogonalLoop=1;jettySize=auto;html=1;exitX=0.5;exitY=1;exitDx=0;exitDy=0;entryX=0.158;entryY=0.017;entryDx=0;entryDy=0;entryPerimeter=0;endArrow=none;endFill=0;" edge="1" parent="1" source="DgWF0BL-dPqaDVWD86OZ-53" target="DgWF0BL-dPqaDVWD86OZ-34">
          <mxGeometry relative="1" as="geometry" />
        </mxCell>
        <mxCell id="2cAsnJDRUEPyDkfKA4UC-37" style="rounded=0;orthogonalLoop=1;jettySize=auto;html=1;exitX=0;exitY=1;exitDx=0;exitDy=0;entryX=0.592;entryY=-0.017;entryDx=0;entryDy=0;entryPerimeter=0;endArrow=none;endFill=0;" edge="1" parent="1" source="DgWF0BL-dPqaDVWD86OZ-54" target="DgWF0BL-dPqaDVWD86OZ-34">
          <mxGeometry relative="1" as="geometry" />
        </mxCell>
        <mxCell id="2cAsnJDRUEPyDkfKA4UC-38" style="rounded=0;orthogonalLoop=1;jettySize=auto;html=1;exitX=0;exitY=1;exitDx=0;exitDy=0;entryX=0.933;entryY=0.017;entryDx=0;entryDy=0;entryPerimeter=0;endArrow=none;endFill=0;" edge="1" parent="1" source="DgWF0BL-dPqaDVWD86OZ-55" target="DgWF0BL-dPqaDVWD86OZ-34">
          <mxGeometry relative="1" as="geometry" />
        </mxCell>
        <mxCell id="2cAsnJDRUEPyDkfKA4UC-40" value="alimentos" style="rounded=1;whiteSpace=wrap;html=1;" vertex="1" parent="1">
          <mxGeometry x="910" y="115" width="115" height="50" as="geometry" />
        </mxCell>
        <mxCell id="2cAsnJDRUEPyDkfKA4UC-42" style="rounded=0;orthogonalLoop=1;jettySize=auto;html=1;exitX=1;exitY=0;exitDx=0;exitDy=0;entryX=0.008;entryY=0.65;entryDx=0;entryDy=0;entryPerimeter=0;endArrow=none;endFill=0;" edge="1" parent="1" source="DgWF0BL-dPqaDVWD86OZ-61" target="DgWF0BL-dPqaDVWD86OZ-60">
          <mxGeometry relative="1" as="geometry" />
        </mxCell>
        <mxCell id="2cAsnJDRUEPyDkfKA4UC-45" style="rounded=0;orthogonalLoop=1;jettySize=auto;html=1;exitX=0.5;exitY=0;exitDx=0;exitDy=0;entryX=0.433;entryY=0.967;entryDx=0;entryDy=0;entryPerimeter=0;endArrow=none;endFill=0;" edge="1" parent="1" source="DgWF0BL-dPqaDVWD86OZ-65" target="DgWF0BL-dPqaDVWD86OZ-60">
          <mxGeometry relative="1" as="geometry" />
        </mxCell>
        <mxCell id="2cAsnJDRUEPyDkfKA4UC-46" style="rounded=0;orthogonalLoop=1;jettySize=auto;html=1;exitX=0;exitY=0;exitDx=0;exitDy=0;entryX=0.617;entryY=1.05;entryDx=0;entryDy=0;entryPerimeter=0;endArrow=none;endFill=0;" edge="1" parent="1" source="DgWF0BL-dPqaDVWD86OZ-63" target="DgWF0BL-dPqaDVWD86OZ-60">
          <mxGeometry relative="1" as="geometry" />
        </mxCell>
        <mxCell id="2cAsnJDRUEPyDkfKA4UC-49" style="rounded=0;orthogonalLoop=1;jettySize=auto;html=1;exitX=0;exitY=0.5;exitDx=0;exitDy=0;entryX=0.917;entryY=0.017;entryDx=0;entryDy=0;entryPerimeter=0;endArrow=none;endFill=0;" edge="1" parent="1" source="DgWF0BL-dPqaDVWD86OZ-69" target="DgWF0BL-dPqaDVWD86OZ-60">
          <mxGeometry relative="1" as="geometry" />
        </mxCell>
        <mxCell id="2cAsnJDRUEPyDkfKA4UC-53" style="rounded=0;orthogonalLoop=1;jettySize=auto;html=1;exitX=1;exitY=0;exitDx=0;exitDy=0;entryX=0.183;entryY=1.05;entryDx=0;entryDy=0;entryPerimeter=0;endArrow=none;endFill=0;" edge="1" parent="1" source="DgWF0BL-dPqaDVWD86OZ-57" target="DgWF0BL-dPqaDVWD86OZ-33">
          <mxGeometry relative="1" as="geometry" />
        </mxCell>
        <mxCell id="2cAsnJDRUEPyDkfKA4UC-54" style="rounded=0;orthogonalLoop=1;jettySize=auto;html=1;exitX=0.5;exitY=0;exitDx=0;exitDy=0;entryX=0.333;entryY=1.05;entryDx=0;entryDy=0;entryPerimeter=0;endArrow=none;endFill=0;" edge="1" parent="1" source="DgWF0BL-dPqaDVWD86OZ-46" target="DgWF0BL-dPqaDVWD86OZ-33">
          <mxGeometry relative="1" as="geometry" />
        </mxCell>
        <mxCell id="2cAsnJDRUEPyDkfKA4UC-60" style="rounded=0;orthogonalLoop=1;jettySize=auto;html=1;entryX=0;entryY=0.5;entryDx=0;entryDy=0;endArrow=none;endFill=0;" edge="1" parent="1" source="2cAsnJDRUEPyDkfKA4UC-58" target="2cAsnJDRUEPyDkfKA4UC-40">
          <mxGeometry relative="1" as="geometry" />
        </mxCell>
        <mxCell id="2cAsnJDRUEPyDkfKA4UC-58" value="tiene" style="rhombus;whiteSpace=wrap;html=1;" vertex="1" parent="1">
          <mxGeometry x="780" y="100" width="80" height="80" as="geometry" />
        </mxCell>
        <mxCell id="2cAsnJDRUEPyDkfKA4UC-61" value="1 : n" style="text;html=1;align=center;verticalAlign=middle;resizable=0;points=[];autosize=1;strokeColor=none;fillColor=none;" vertex="1" parent="1">
          <mxGeometry x="795" y="75" width="50" height="30" as="geometry" />
        </mxCell>
        <mxCell id="2cAsnJDRUEPyDkfKA4UC-62" value="1" style="text;html=1;align=center;verticalAlign=middle;resizable=0;points=[];autosize=1;strokeColor=none;fillColor=none;" vertex="1" parent="1">
          <mxGeometry x="720" y="140" width="30" height="30" as="geometry" />
        </mxCell>
        <mxCell id="2cAsnJDRUEPyDkfKA4UC-63" value="n" style="text;html=1;align=center;verticalAlign=middle;resizable=0;points=[];autosize=1;strokeColor=none;fillColor=none;" vertex="1" parent="1">
          <mxGeometry x="885" y="138" width="30" height="30" as="geometry" />
        </mxCell>
        <mxCell id="2cAsnJDRUEPyDkfKA4UC-64" value="&lt;u&gt;id&lt;/u&gt;" style="ellipse;whiteSpace=wrap;html=1;" vertex="1" parent="1">
          <mxGeometry x="1000" y="30" width="90" height="50" as="geometry" />
        </mxCell>
        <mxCell id="2cAsnJDRUEPyDkfKA4UC-69" style="rounded=0;orthogonalLoop=1;jettySize=auto;html=1;exitX=0;exitY=0.5;exitDx=0;exitDy=0;entryX=1;entryY=0;entryDx=0;entryDy=0;endArrow=none;endFill=0;" edge="1" parent="1" source="2cAsnJDRUEPyDkfKA4UC-65" target="2cAsnJDRUEPyDkfKA4UC-40">
          <mxGeometry relative="1" as="geometry" />
        </mxCell>
        <mxCell id="2cAsnJDRUEPyDkfKA4UC-65" value="tipo alimento" style="ellipse;whiteSpace=wrap;html=1;" vertex="1" parent="1">
          <mxGeometry x="1060" y="75" width="90" height="50" as="geometry" />
        </mxCell>
        <mxCell id="2cAsnJDRUEPyDkfKA4UC-70" style="rounded=0;orthogonalLoop=1;jettySize=auto;html=1;exitX=0;exitY=0;exitDx=0;exitDy=0;entryX=1;entryY=0.5;entryDx=0;entryDy=0;endArrow=none;endFill=0;" edge="1" parent="1" source="2cAsnJDRUEPyDkfKA4UC-66" target="2cAsnJDRUEPyDkfKA4UC-40">
          <mxGeometry relative="1" as="geometry" />
        </mxCell>
        <mxCell id="2cAsnJDRUEPyDkfKA4UC-66" value="gramaje o porción" style="ellipse;whiteSpace=wrap;html=1;" vertex="1" parent="1">
          <mxGeometry x="1050" y="138" width="90" height="50" as="geometry" />
        </mxCell>
        <mxCell id="2cAsnJDRUEPyDkfKA4UC-67" value="precio" style="ellipse;whiteSpace=wrap;html=1;" vertex="1" parent="1">
          <mxGeometry x="1010" y="195" width="90" height="50" as="geometry" />
        </mxCell>
        <mxCell id="2cAsnJDRUEPyDkfKA4UC-68" style="rounded=0;orthogonalLoop=1;jettySize=auto;html=1;exitX=0;exitY=1;exitDx=0;exitDy=0;endArrow=none;endFill=0;" edge="1" parent="1" source="2cAsnJDRUEPyDkfKA4UC-64">
          <mxGeometry relative="1" as="geometry">
            <mxPoint x="990" y="110" as="targetPoint" />
          </mxGeometry>
        </mxCell>
        <mxCell id="2cAsnJDRUEPyDkfKA4UC-71" style="rounded=0;orthogonalLoop=1;jettySize=auto;html=1;exitX=0;exitY=0;exitDx=0;exitDy=0;entryX=0.87;entryY=1.1;entryDx=0;entryDy=0;entryPerimeter=0;endArrow=none;endFill=0;" edge="1" parent="1" source="2cAsnJDRUEPyDkfKA4UC-67" target="2cAsnJDRUEPyDkfKA4UC-40">
          <mxGeometry relative="1" as="geometry" />
        </mxCell>
        <mxCell id="2cAsnJDRUEPyDkfKA4UC-72" value="comprobante" style="rounded=1;whiteSpace=wrap;html=1;" vertex="1" parent="1">
          <mxGeometry x="130" y="600" width="120" height="60" as="geometry" />
        </mxCell>
        <mxCell id="2cAsnJDRUEPyDkfKA4UC-76" style="rounded=0;orthogonalLoop=1;jettySize=auto;html=1;entryX=0.5;entryY=0;entryDx=0;entryDy=0;endArrow=none;endFill=0;" edge="1" parent="1" source="2cAsnJDRUEPyDkfKA4UC-74" target="2cAsnJDRUEPyDkfKA4UC-72">
          <mxGeometry relative="1" as="geometry" />
        </mxCell>
        <mxCell id="2cAsnJDRUEPyDkfKA4UC-74" value="tener" style="rhombus;whiteSpace=wrap;html=1;" vertex="1" parent="1">
          <mxGeometry x="150" y="460" width="80" height="80" as="geometry" />
        </mxCell>
        <mxCell id="2cAsnJDRUEPyDkfKA4UC-78" style="rounded=0;orthogonalLoop=1;jettySize=auto;html=1;exitX=1;exitY=0;exitDx=0;exitDy=0;entryX=0;entryY=0.25;entryDx=0;entryDy=0;endArrow=none;endFill=0;" edge="1" parent="1" source="2cAsnJDRUEPyDkfKA4UC-77" target="2cAsnJDRUEPyDkfKA4UC-72">
          <mxGeometry relative="1" as="geometry" />
        </mxCell>
        <mxCell id="2cAsnJDRUEPyDkfKA4UC-77" value="&lt;u&gt;id&lt;/u&gt;" style="ellipse;whiteSpace=wrap;html=1;" vertex="1" parent="1">
          <mxGeometry x="25" y="620" width="80" height="50" as="geometry" />
        </mxCell>
        <mxCell id="2cAsnJDRUEPyDkfKA4UC-79" value="&lt;span&gt;producto&lt;/span&gt;" style="ellipse;whiteSpace=wrap;html=1;fontStyle=0" vertex="1" parent="1">
          <mxGeometry x="40" y="700" width="80" height="50" as="geometry" />
        </mxCell>
        <mxCell id="2cAsnJDRUEPyDkfKA4UC-80" style="rounded=0;orthogonalLoop=1;jettySize=auto;html=1;exitX=0.5;exitY=0;exitDx=0;exitDy=0;entryX=0.092;entryY=0.95;entryDx=0;entryDy=0;entryPerimeter=0;endArrow=none;endFill=0;" edge="1" parent="1" source="2cAsnJDRUEPyDkfKA4UC-79" target="2cAsnJDRUEPyDkfKA4UC-72">
          <mxGeometry relative="1" as="geometry" />
        </mxCell>
        <mxCell id="2cAsnJDRUEPyDkfKA4UC-89" style="rounded=0;orthogonalLoop=1;jettySize=auto;html=1;exitX=0;exitY=0.5;exitDx=0;exitDy=0;entryX=1;entryY=0.5;entryDx=0;entryDy=0;strokeColor=default;endArrow=none;endFill=0;" edge="1" parent="1" source="2cAsnJDRUEPyDkfKA4UC-81" target="2cAsnJDRUEPyDkfKA4UC-72">
          <mxGeometry relative="1" as="geometry" />
        </mxCell>
        <mxCell id="2cAsnJDRUEPyDkfKA4UC-81" value="subtotal" style="ellipse;whiteSpace=wrap;html=1;fontStyle=0" vertex="1" parent="1">
          <mxGeometry x="290" y="600" width="80" height="50" as="geometry" />
        </mxCell>
        <mxCell id="2cAsnJDRUEPyDkfKA4UC-88" style="rounded=0;orthogonalLoop=1;jettySize=auto;html=1;entryX=1;entryY=0;entryDx=0;entryDy=0;endArrow=none;endFill=0;" edge="1" parent="1" source="2cAsnJDRUEPyDkfKA4UC-82" target="2cAsnJDRUEPyDkfKA4UC-72">
          <mxGeometry relative="1" as="geometry" />
        </mxCell>
        <mxCell id="2cAsnJDRUEPyDkfKA4UC-82" value="total" style="ellipse;whiteSpace=wrap;html=1;fontStyle=0" vertex="1" parent="1">
          <mxGeometry x="300" y="550" width="80" height="50" as="geometry" />
        </mxCell>
        <mxCell id="2cAsnJDRUEPyDkfKA4UC-83" value="num_documento" style="ellipse;whiteSpace=wrap;html=1;fontStyle=0" vertex="1" parent="1">
          <mxGeometry x="125" y="710" width="95" height="50" as="geometry" />
        </mxCell>
        <mxCell id="2cAsnJDRUEPyDkfKA4UC-85" value="correo" style="ellipse;whiteSpace=wrap;html=1;fontStyle=0" vertex="1" parent="1">
          <mxGeometry x="230" y="720" width="95" height="50" as="geometry" />
        </mxCell>
        <mxCell id="2cAsnJDRUEPyDkfKA4UC-86" value="celular" style="ellipse;whiteSpace=wrap;html=1;fontStyle=0" vertex="1" parent="1">
          <mxGeometry x="270" y="660" width="95" height="50" as="geometry" />
        </mxCell>
        <mxCell id="2cAsnJDRUEPyDkfKA4UC-90" style="rounded=0;orthogonalLoop=1;jettySize=auto;html=1;exitX=0;exitY=0;exitDx=0;exitDy=0;entryX=0.975;entryY=0.867;entryDx=0;entryDy=0;entryPerimeter=0;endArrow=none;endFill=0;" edge="1" parent="1" source="2cAsnJDRUEPyDkfKA4UC-86" target="2cAsnJDRUEPyDkfKA4UC-72">
          <mxGeometry relative="1" as="geometry" />
        </mxCell>
        <mxCell id="2cAsnJDRUEPyDkfKA4UC-91" style="rounded=0;orthogonalLoop=1;jettySize=auto;html=1;exitX=0;exitY=0;exitDx=0;exitDy=0;entryX=0.825;entryY=1.067;entryDx=0;entryDy=0;entryPerimeter=0;endArrow=none;endFill=0;" edge="1" parent="1" source="2cAsnJDRUEPyDkfKA4UC-85" target="2cAsnJDRUEPyDkfKA4UC-72">
          <mxGeometry relative="1" as="geometry" />
        </mxCell>
        <mxCell id="2cAsnJDRUEPyDkfKA4UC-92" style="rounded=0;orthogonalLoop=1;jettySize=auto;html=1;exitX=0.5;exitY=0;exitDx=0;exitDy=0;entryX=0.383;entryY=1.017;entryDx=0;entryDy=0;entryPerimeter=0;endArrow=none;endFill=0;" edge="1" parent="1" source="2cAsnJDRUEPyDkfKA4UC-83" target="2cAsnJDRUEPyDkfKA4UC-72">
          <mxGeometry relative="1" as="geometry" />
        </mxCell>
        <mxCell id="2cAsnJDRUEPyDkfKA4UC-93" value="1" style="text;html=1;align=center;verticalAlign=middle;resizable=0;points=[];autosize=1;strokeColor=none;fillColor=none;" vertex="1" parent="1">
          <mxGeometry x="165" y="398" width="30" height="30" as="geometry" />
        </mxCell>
        <mxCell id="2cAsnJDRUEPyDkfKA4UC-94" value="1 : 1" style="text;html=1;align=center;verticalAlign=middle;resizable=0;points=[];autosize=1;strokeColor=none;fillColor=none;" vertex="1" parent="1">
          <mxGeometry x="145" y="450" width="50" height="30" as="geometry" />
        </mxCell>
        <mxCell id="2cAsnJDRUEPyDkfKA4UC-95" value="1" style="text;html=1;align=center;verticalAlign=middle;resizable=0;points=[];autosize=1;strokeColor=none;fillColor=none;" vertex="1" parent="1">
          <mxGeometry x="165" y="570" width="30" height="30" as="geometry" />
        </mxCell>
        <mxCell id="2cAsnJDRUEPyDkfKA4UC-96" value="nombre" style="ellipse;whiteSpace=wrap;html=1;" vertex="1" parent="1">
          <mxGeometry x="910" y="198" width="90" height="50" as="geometry" />
        </mxCell>
        <mxCell id="2cAsnJDRUEPyDkfKA4UC-97" style="rounded=0;orthogonalLoop=1;jettySize=auto;html=1;exitX=0.5;exitY=0;exitDx=0;exitDy=0;entryX=0.4;entryY=1;entryDx=0;entryDy=0;entryPerimeter=0;endArrow=none;endFill=0;" edge="1" parent="1" source="2cAsnJDRUEPyDkfKA4UC-96" target="2cAsnJDRUEPyDkfKA4UC-40">
          <mxGeometry relative="1" as="geometry" />
        </mxCell>
      </root>
    </mxGraphModel>
  </diagram>
</mxfile>
